# xmcd CD database file
#
# Track frame offsets:
#	150
#	8131
#	34371
#	48685
#	66243
#	86183
#	102626
#	123665
#	135407
#	158696
#	184658
#	206785
#	221504
#	241370
#	265345
#	282285
#	302799
#	317310
#
# Disc length: 4402 seconds
#
# Revision: 0
# Processed by: cddbd v1.5.1PL0 Copyright (c) Steve Scherf et al.
# Submitted via: CDex 1.51
#
DISCID=0e113012
DTITLE=Rocky Zharp and The Blues Crackers - Live at Peabody's
DYEAR=1997
DGENRE=Blues
TTITLE0=Intro - Zharp Harpin'
TTITLE1=For What It's Worth
TTITLE2=I Got the Same Old Blues
TTITLE3=I'm Leaving You
TTITLE4=Just a Little Bit
TTITLE5=M.F.H.J.
TTITLE6=Rolling and Tumbling
TTITLE7=I Don't Want You No More
TTITLE8=Louise
TTITLE9=Treat Her Right
TTITLE10=Song For Me
TTITLE11=Shaky Ground
TTITLE12=Messin With the Kid
TTITLE13=Can't Wait to See You
TTITLE14=Chain of Fools
TTITLE15=Spoonful
TTITLE16=Endless Sleep
TTITLE17=I Thank You
EXTD=YEAR: 1997
EXTT0=
EXTT1=
EXTT2=
EXTT3=
EXTT4=
EXTT5=
EXTT6=
EXTT7=
EXTT8=
EXTT9=
EXTT10=
EXTT11=
EXTT12=
EXTT13=
EXTT14=
EXTT15=
EXTT16=
EXTT17=
PLAYORDER=
